<svg width="10" height="10" viewBox="0 0 10 10" fill="none" xmlns="http://www.w3.org/2000/svg">
<path d="M5 1.71753L4.55203 1.25708C3.49931 0.175042 1.57134 0.548559 0.875224 1.90803C0.547834 2.54739 0.474219 3.47029 1.07143 4.64848C1.64661 5.78321 2.8423 7.14154 5 8.62162C7.15771 7.14154 8.35339 5.78321 8.92857 4.64848C9.52578 3.47029 9.45217 2.54739 9.12478 1.90803C8.42866 0.548559 6.50069 0.175042 5.44797 1.25708L5 1.71753ZM5 9.375C-4.58321 3.04276 2.04922 -1.90054 4.8902 0.714427C4.92747 0.74873 4.96408 0.784334 5 0.821253C5.03592 0.784336 5.07253 0.748734 5.1098 0.714432C7.95077 -1.90055 14.5832 3.04275 5 9.375Z" fill="black"/>
</svg>
